<svg xmlns="http://www.w3.org/2000/svg" width="210mm" height="297mm" viewBox="0 0 744.09448819 1052.3622047"><path fill="#fff" d="M125.856 502.826c-.858-3.987-3.121-14.45-5.031-23.25-1.909-8.8-3.749-17.575-4.088-19.5-.579-3.291 2.786-27.244 9.022-64.218 1.365-8.095 2.656-16.645 2.869-19 .213-2.355.435-4.732.495-5.282.059-.55 4.717-7.362 10.349-15.138 5.633-7.776 18.342-25.311 28.242-38.967 9.9-13.656 18.799-26.111 19.776-27.678l1.776-2.849-43.062.316c-33.347.245-43.234.038-43.825-.917-.42-.679-14.016-4.562-30.214-8.63-28.424-7.138-29.939-7.643-43.451-14.473-7.7-3.892-13.695-7.096-13.323-7.12 1.395-.088 32.706 6.166 42.323 8.454 29.131 6.931 43.607 9.74 51.5 9.991 7.39.235 19.611 1.218 67.5 5.43 10.09.887 12.045.582 10.656-1.664-.661-1.069-32.749-5.034-62.656-7.742-9.425-.853-10.163-1.144-10.892-4.291-.452-1.954-7.009-8.217-23.262-22.22-33.079-28.502-30.939-26.144-40.391-44.5-4.531-8.8-8.03-15.775-7.777-15.5 23.262 25.195 28.244 29.978 50.72 48.687 19.369 16.123 24.682 20.076 25.769 19.174 1.052-.873 5.012.044 17.101 3.962 51.284 16.622 49.343 16.157 52.351 12.533 1.106-1.333.823-1.96-1.901-4.211-2.674-2.21-3.762-4.538-6.61-14.145-1.875-6.325-7.108-23.65-11.629-38.5-4.521-14.85-9.462-31.275-10.981-36.5l-2.762-9.5 1.967-3.256c1.942-3.215 1.947-3.806.365-46.5-1.444-38.97-1.452-45.764-.091-68.744.831-14.025 1.514-27.712 1.517-30.417.003-2.704.189-4.729.412-4.5.362.371 2.785 33.25 4.121 55.917 1.117 18.954 2.566 41.206 3.464 53.182.523 6.975 1.212 16.425 1.531 21 .843 12.067 1.389 14.818 2.943 14.818 1.561 0 1.726.666 4.577 18.5 1.143 7.15 4.069 24.7 6.501 39 2.432 14.3 4.971 29.261 5.642 33.247.909 5.4 1.676 7.392 3.008 7.815 3.176 1.008 4.005-.534 3.722-6.929-.51-11.555-.128-14.192 2.083-14.358 1.612-.121 2.002.469 2.009 3.037l.009 3.188 2.547-4.25c1.401-2.337 2.721-4.25 2.934-4.25.213 0 1.533 1.913 2.934 4.25l2.547 4.25.009-3.188c.008-2.569.398-3.159 2.009-3.037 2.211.167 2.594 2.803 2.083 14.358-.282 6.394.546 7.937 3.722 6.929 1.332-.423 2.099-2.415 3.008-7.815.671-3.986 3.21-18.947 5.642-33.247 2.432-14.3 5.358-31.85 6.501-39 2.852-17.834 3.016-18.5 4.577-18.5 1.554 0 2.101-2.751 2.943-14.818.319-4.575 1.008-14.025 1.531-21 .897-11.976 2.347-34.228 3.464-53.182 1.336-22.666 3.759-55.546 4.121-55.917.224-.229.409 1.796.412 4.5.003 2.704.686 16.392 1.517 30.417 1.362 22.98 1.353 29.774-.091 68.744-1.581 42.694-1.577 43.285.365 46.5l1.967 3.256-2.762 9.5c-1.519 5.225-6.46 21.65-10.981 36.5-4.521 14.85-9.753 32.175-11.629 38.5-2.849 9.608-3.936 11.935-6.61 14.145-2.724 2.251-3.007 2.878-1.901 4.211 3.007 3.624 1.067 4.088 52.351-12.533 12.089-3.918 16.049-4.836 17.101-3.962 1.087.902 6.4-3.051 25.769-19.174 22.476-18.709 27.458-23.492 50.72-48.687.254-.275-3.246 6.7-7.777 15.5-9.451 18.356-7.311 15.998-40.391 44.5-16.253 14.004-22.81 20.267-23.262 22.22-.728 3.147-1.467 3.438-10.892 4.291-29.907 2.708-61.996 6.672-62.656 7.742-1.388 2.246.567 2.552 10.656 1.664 47.889-4.212 60.11-5.195 67.5-5.43 7.893-.251 22.369-3.059 51.5-9.991 9.617-2.288 40.928-8.543 42.323-8.454.372.024-5.623 3.228-13.323 7.12-13.512 6.83-15.027 7.335-43.451 14.473-16.198 4.068-29.794 7.951-30.214 8.63-.591.955-10.477 1.162-43.825.917l-43.062-.316 1.776 2.849c.977 1.567 9.876 14.022 19.776 27.678s22.609 31.191 28.242 38.967c5.633 7.776 10.29 14.588 10.349 15.138.059.55.275 2.8.48 5 .204 2.2 2.377 16.375 4.829 31.5 2.451 15.125 5.193 32.45 6.092 38.5l1.635 11-3.134 14.5c-1.724 7.975-4.235 19.645-5.58 25.934-2.302 10.761-2.99 12.98-3.715 11.983-.167-.229.041-10.992.46-23.917.832-25.609.266-31.88-7.244-80.283-1.602-10.331-2.913-19.893-2.913-21.25 0-1.357-.405-2.467-.901-2.467-.841 0-9.454-13.402-22.173-34.5l-5.426-9-.5 7.149c-.34 4.855-1.061 7.768-2.25 9.079-.963 1.061-1.75 2.635-1.75 3.498 0 2.374-5.135 14.47-9.199 21.668-3.582 6.344-3.665 6.411-10.955 8.737-9.275 2.959-15.417 2.959-24.692 0-7.29-2.326-7.374-2.393-10.955-8.737-4.064-7.198-9.199-19.294-9.199-21.668 0-.862-.787-2.436-1.75-3.498-1.189-1.311-1.91-4.223-2.25-9.079l-.5-7.149-5.426 9c-12.719 21.098-21.333 34.5-22.173 34.5-.495 0-.901 1.098-.901 2.441 0 1.342-1.34 11.13-2.978 21.75-7.297 47.323-7.972 54.006-7.457 73.809.265 10.175.653 21.087.863 24.25.21 3.163.019 5.75-.423 5.75-.443 0-1.506-3.263-2.364-7.25z"/></svg>